<svg width="25" height="26" viewBox="0 0 25 26" fill="none" xmlns="http://www.w3.org/2000/svg">
<path d="M3.29945 4.79871L0.427813 1.92552C0.355769 1.85348 0.298621 1.76795 0.259631 1.67382C0.220642 1.57969 0.200574 1.4788 0.200574 1.37692C0.200574 1.27503 0.220642 1.17414 0.259631 1.08001C0.298621 0.985885 0.355769 0.900356 0.427813 0.828313C0.499856 0.756269 0.585384 0.699121 0.679514 0.660132C0.773643 0.621142 0.87453 0.601074 0.976415 0.601074C1.0783 0.601074 1.17919 0.621142 1.27332 0.660132C1.36745 0.699121 1.45297 0.756269 1.52502 0.828313L4.39821 3.70305L5.49542 4.80026L20.799 20.1038L21.8962 21.201L24.7709 24.0742C24.9164 24.2197 24.9981 24.417 24.9981 24.6228C24.9981 24.8286 24.9164 25.0259 24.7709 25.1714C24.6254 25.3169 24.4281 25.3986 24.2223 25.3986C24.0165 25.3986 23.8192 25.3169 23.6737 25.1714L20.8005 22.2967C18.5376 24.2988 15.6193 25.4021 12.5978 25.3977C10.6525 25.4007 8.734 24.944 6.99865 24.0649L6.81113 23.9642L1.16238 25.3744C1.05367 25.4018 0.940323 25.4052 0.830159 25.3845C0.719996 25.3637 0.615641 25.3193 0.524296 25.2544C0.432951 25.1894 0.35679 25.1054 0.30107 25.0081C0.245349 24.9109 0.211396 24.8027 0.201553 24.691V24.5639L0.223249 24.4353L1.6335 18.7881L1.53587 18.6021C0.826688 17.2061 0.390139 15.6876 0.249594 14.1281L0.210851 13.5361L0.200003 12.9999C0.195516 9.9791 1.29819 7.06143 3.29945 4.79871V4.79871ZM19.7033 21.1979L14.0995 15.5941C14.0527 15.7196 13.9741 15.8309 13.8714 15.917C13.7687 16.0031 13.6455 16.0611 13.5137 16.0854L13.3727 16.0993H8.72349C8.52986 16.0997 8.34311 16.0275 8.20002 15.8971C8.05693 15.7666 7.96787 15.5873 7.95037 15.3945C7.93288 15.2016 7.98822 15.0092 8.10549 14.8551C8.22277 14.7011 8.39348 14.5965 8.58402 14.562L8.72349 14.5496H13.0519L9.95243 11.4501H8.72349C8.54216 11.4498 8.3667 11.3858 8.22766 11.2694C8.08861 11.153 7.9948 10.9916 7.96254 10.8131C7.93028 10.6347 7.96162 10.4506 8.05111 10.2929C8.1406 10.1352 8.28256 10.0138 8.45229 9.95L4.39821 5.89592C2.68641 7.86633 1.74564 10.3897 1.74973 12.9999C1.74973 14.8859 2.23014 16.7006 3.13518 18.3077C3.20709 18.4361 3.24096 18.5823 3.23282 18.7292L3.21112 18.8749L2.03953 23.5566L6.7259 22.3881C6.82117 22.3646 6.92002 22.3593 7.01725 22.3726L7.15827 22.4051L7.2931 22.4656C8.91291 23.3752 10.7401 23.8513 12.5978 23.8479C15.2081 23.8516 17.7316 22.9103 19.7017 21.1979H19.7033Z" fill="#666666"/>
<path d="M22.8539 19.9674L21.735 18.8501C23.0691 16.767 23.6513 14.2906 23.385 11.8313C23.1187 9.37203 22.0199 7.07763 20.2707 5.32849C18.5216 3.57935 16.2272 2.48054 13.7679 2.21422C11.3086 1.9479 8.83218 2.53007 6.74914 3.86421L5.63024 2.74376C8.01643 1.12098 10.894 0.381406 13.7669 0.652508C16.6399 0.92361 19.3282 2.1884 21.3687 4.22891C23.4093 6.26941 24.674 8.9578 24.9451 11.8307C25.2163 14.7037 24.4767 17.5812 22.8539 19.9674V19.9674Z" fill="#666666"/>
<path d="M16.4721 11.4501H14.335L12.7853 9.90039H16.4721C16.6658 9.90004 16.8525 9.97219 16.9956 10.1026C17.1387 10.2331 17.2277 10.4124 17.2452 10.6052C17.2627 10.7981 17.2074 10.9905 17.0901 11.1446C16.9728 11.2986 16.8021 11.4032 16.6116 11.4377L16.4721 11.4501Z" fill="#666666"/>
</svg>
