<svg width="32" height="32" viewBox="0 0 32 32" fill="none" xmlns="http://www.w3.org/2000/svg">
<g opacity="0.5">
<path d="M7.2735 20L1.3335 24.6666V3.99996C1.3335 3.64634 1.47397 3.3072 1.72402 3.05715C1.97407 2.8071 2.31321 2.66663 2.66683 2.66663H22.6668C23.0205 2.66663 23.3596 2.8071 23.6096 3.05715C23.8597 3.3072 24.0002 3.64634 24.0002 3.99996V20H7.2735ZM6.35083 17.3333H21.3335V5.33329H4.00016V19.18L6.35083 17.3333ZM10.6668 22.6666H24.3162L26.6668 24.5133V10.6666H28.0002C28.3538 10.6666 28.6929 10.8071 28.943 11.0572C29.193 11.3072 29.3335 11.6463 29.3335 12V30L23.3935 25.3333H12.0002C11.6465 25.3333 11.3074 25.1928 11.0574 24.9428C10.8073 24.6927 10.6668 24.3536 10.6668 24V22.6666Z" fill="#666666"/>
</g>
</svg>
