<svg width="157" height="77" viewBox="0 0 157 77" fill="none" xmlns="http://www.w3.org/2000/svg">
<path d="M0 20.999H4.47282V42.2735H0V20.999Z" fill="#29292E"/>
<path d="M22.5872 34.6181C22.5872 34.6755 22.5585 35.0769 22.5012 35.8223H10.8317C11.042 36.7781 11.5389 37.5331 12.3226 38.0874C13.1063 38.6417 14.0812 38.9189 15.2472 38.9189C16.05 38.9189 16.7572 38.8042 17.3689 38.5748C17.9997 38.3264 18.5827 37.9441 19.1179 37.428L21.4977 40.0084C20.0449 41.6714 17.9232 42.5029 15.1325 42.5029C13.3931 42.5029 11.8543 42.1684 10.5163 41.4994C9.1783 40.8113 8.14611 39.8651 7.41975 38.6609C6.6934 37.4566 6.33022 36.0899 6.33022 34.5608C6.33022 33.0507 6.68384 31.6936 7.39108 30.4894C8.11744 29.266 9.10184 28.3199 10.3443 27.6508C11.6059 26.9627 13.0108 26.6187 14.5591 26.6187C16.0691 26.6187 17.4358 26.9436 18.6591 27.5935C19.8825 28.2434 20.8382 29.18 21.5263 30.4033C22.2336 31.6076 22.5872 33.0125 22.5872 34.6181ZM14.5877 30.0019C13.5747 30.0019 12.7241 30.2887 12.0359 30.8621C11.3478 31.4355 10.9273 32.2192 10.7744 33.2132H18.3724C18.2195 32.2384 17.799 31.4642 17.1109 30.8908C16.4227 30.2982 15.5817 30.0019 14.5877 30.0019Z" fill="#29292E"/>
<path d="M34.3673 41.5281C33.9277 41.853 33.3829 42.1015 32.733 42.2735C32.1022 42.4264 31.4332 42.5029 30.726 42.5029C28.891 42.5029 27.4669 42.0346 26.4539 41.098C25.4599 40.1614 24.9629 38.7851 24.9629 36.9692V30.6327H22.5832V27.1921H24.9629V23.4361H29.4357V27.1921H33.2778V30.6327H29.4357V36.9119C29.4357 37.5618 29.5982 38.0683 29.9232 38.4315C30.2672 38.7755 30.7451 38.9476 31.3568 38.9476C32.064 38.9476 32.6661 38.7564 33.1631 38.3741L34.3673 41.5281Z" fill="#29292E"/>
<path d="M55.4862 26.6187C57.4168 26.6187 58.9459 27.1921 60.0737 28.339C61.2206 29.4667 61.794 31.1679 61.794 33.4426V42.2735H57.3212V34.1307C57.3212 32.9074 57.0631 31.9994 56.5471 31.4069C56.0501 30.7952 55.3333 30.4894 54.3967 30.4894C53.3454 30.4894 52.5139 30.8334 51.9022 31.5216C51.2905 32.1906 50.9847 33.1941 50.9847 34.5321V42.2735H46.5119V34.1307C46.5119 31.7031 45.537 30.4894 43.5873 30.4894C42.5552 30.4894 41.7332 30.8334 41.1216 31.5216C40.5099 32.1906 40.2041 33.1941 40.2041 34.5321V42.2735H35.7312V26.848H40.0034V28.6257C40.5768 27.9758 41.2745 27.4788 42.0964 27.1348C42.9375 26.7907 43.855 26.6187 44.8489 26.6187C45.9384 26.6187 46.9228 26.8385 47.8021 27.2781C48.6814 27.6986 49.3886 28.3199 49.9238 29.1418C50.5546 28.339 51.3479 27.7177 52.3036 27.2781C53.2785 26.8385 54.3393 26.6187 55.4862 26.6187Z" fill="#29292E"/>
<path d="M79.9344 34.6181C79.9344 34.6755 79.9057 35.0769 79.8484 35.8223H68.1789C68.3891 36.7781 68.8861 37.5331 69.6698 38.0874C70.4535 38.6417 71.4284 38.9189 72.5944 38.9189C73.3972 38.9189 74.1044 38.8042 74.7161 38.5748C75.3469 38.3264 75.9299 37.9441 76.4651 37.428L78.8448 40.0084C77.3921 41.6714 75.2704 42.5029 72.4797 42.5029C70.7402 42.5029 69.2015 42.1684 67.8635 41.4994C66.5255 40.8113 65.4933 39.8651 64.7669 38.6609C64.0406 37.4566 63.6774 36.0899 63.6774 34.5608C63.6774 33.0507 64.031 31.6936 64.7383 30.4894C65.4646 29.266 66.449 28.3199 67.6915 27.6508C68.953 26.9627 70.358 26.6187 71.9062 26.6187C73.4163 26.6187 74.783 26.9436 76.0063 27.5935C77.2297 28.2434 78.1854 29.18 78.8735 30.4033C79.5807 31.6076 79.9344 33.0125 79.9344 34.6181ZM71.9349 30.0019C70.9218 30.0019 70.0712 30.2887 69.3831 30.8621C68.695 31.4355 68.2745 32.2192 68.1215 33.2132H75.7196C75.5667 32.2384 75.1462 31.4642 74.458 30.8908C73.7699 30.2982 72.9289 30.0019 71.9349 30.0019Z" fill="#29292E"/>
<path d="M106.086 26.848L103.018 42.2735H98.7747L99.0615 40.7539C97.7808 41.9199 96.2038 42.5029 94.3306 42.5029C93.1264 42.5029 92.0177 42.2257 91.0047 41.6714C89.9916 41.1171 89.1792 40.3238 88.5675 39.2916C87.975 38.2403 87.6787 37.0074 87.6787 35.593C87.6787 33.8918 88.0514 32.3626 88.7969 31.0055C89.5615 29.6292 90.5937 28.5588 91.8935 27.7942C93.1933 27.0105 94.6269 26.6187 96.1943 26.6187C98.5645 26.6187 100.237 27.3928 101.212 28.9411L101.613 26.848H106.086ZM95.7068 38.8042C96.5861 38.8042 97.3698 38.594 98.0579 38.1734C98.7461 37.7338 99.2813 37.1317 99.6636 36.3671C100.046 35.6025 100.237 34.7233 100.237 33.7293C100.237 32.678 99.9216 31.8465 99.2908 31.2348C98.6792 30.6232 97.819 30.3173 96.7104 30.3173C95.8311 30.3173 95.0474 30.5372 94.3593 30.9768C93.6711 31.3973 93.1359 31.9899 92.7536 32.7544C92.3713 33.519 92.1802 34.3983 92.1802 35.3923C92.1802 36.4436 92.486 37.2751 93.0977 37.8867C93.7285 38.4984 94.5982 38.8042 95.7068 38.8042Z" fill="url(#paint0_linear)"/>
<path d="M111.632 42.5029C110.294 42.5029 109.023 42.3595 107.819 42.0728C106.634 41.767 105.707 41.3751 105.038 40.8973L106.758 37.6573C107.427 38.097 108.239 38.4506 109.195 38.7182C110.17 38.9858 111.145 39.1196 112.119 39.1196C113.133 39.1196 113.888 38.9954 114.385 38.7469C114.882 38.4793 115.13 38.1065 115.13 37.6287C115.13 37.2464 114.91 36.9692 114.471 36.7972C114.031 36.6252 113.324 36.4436 112.349 36.2524C111.24 36.0422 110.323 35.8128 109.596 35.5643C108.889 35.3158 108.268 34.9144 107.733 34.3601C107.217 33.7866 106.959 33.0125 106.959 32.0376C106.959 30.3364 107.666 29.008 109.08 28.0523C110.514 27.0965 112.387 26.6187 114.7 26.6187C115.77 26.6187 116.812 26.7333 117.825 26.9627C118.838 27.1921 119.698 27.5075 120.406 27.9089L118.8 31.1775C117.538 30.3938 116.019 30.0019 114.241 30.0019C113.266 30.0019 112.521 30.1453 112.005 30.432C111.508 30.7187 111.259 31.0819 111.259 31.5216C111.259 31.923 111.479 32.2192 111.919 32.4104C112.358 32.5824 113.094 32.7736 114.127 32.9838C115.216 33.1941 116.105 33.4235 116.793 33.6719C117.5 33.9013 118.112 34.2932 118.628 34.8475C119.144 35.4018 119.402 36.1568 119.402 37.1126C119.402 38.8329 118.676 40.1614 117.223 41.098C115.79 42.0346 113.926 42.5029 111.632 42.5029Z" fill="url(#paint1_linear)"/>
<path d="M131.595 33.5573L136.899 42.2735H131.71L128.04 36.2811L125.316 38.5462L124.57 42.2735H120.097L124.341 20.999H128.814L126.434 32.8978L133.831 26.848H139.652L131.595 33.5573Z" fill="url(#paint2_linear)"/>
<path d="M81.0842 17.9024V10.7344C81.0842 7.56737 83.6516 5 86.8186 5H130.5M81.0842 50.8751V53.7422C81.0842 56.9093 83.6516 59.4766 86.8186 59.4766H124.092L139.408 73.6141C140.436 74.563 142.075 73.6282 141.782 72.2603L138.428 56.6094H148.463C151.63 56.6094 154.198 54.0421 154.198 50.8751V14" stroke="url(#paint3_linear)" stroke-width="4.30079"/>
<path d="M134 6.252C134 5.564 134.128 4.96 134.384 4.44C134.648 3.92 135.004 3.52 135.452 3.24C135.9 2.96 136.4 2.82 136.952 2.82C137.424 2.82 137.836 2.916 138.188 3.108C138.548 3.3 138.824 3.552 139.016 3.864V2.916H141.068V9.612H139.016V8.664C138.816 8.976 138.536 9.228 138.176 9.42C137.824 9.612 137.412 9.708 136.94 9.708C136.396 9.708 135.9 9.568 135.452 9.288C135.004 9 134.648 8.596 134.384 8.076C134.128 7.548 134 6.94 134 6.252ZM139.016 6.264C139.016 5.752 138.872 5.348 138.584 5.052C138.304 4.756 137.96 4.608 137.552 4.608C137.144 4.608 136.796 4.756 136.508 5.052C136.228 5.34 136.088 5.74 136.088 6.252C136.088 6.764 136.228 7.172 136.508 7.476C136.796 7.772 137.144 7.92 137.552 7.92C137.96 7.92 138.304 7.772 138.584 7.476C138.872 7.18 139.016 6.776 139.016 6.264Z" fill="url(#paint4_linear)"/>
<path d="M143.585 2.22C143.225 2.22 142.929 2.116 142.697 1.908C142.473 1.692 142.361 1.428 142.361 1.116C142.361 0.796 142.473 0.532 142.697 0.324C142.929 0.108 143.225 0 143.585 0C143.937 0 144.225 0.108 144.449 0.324C144.681 0.532 144.797 0.796 144.797 1.116C144.797 1.428 144.681 1.692 144.449 1.908C144.225 2.116 143.937 2.22 143.585 2.22ZM144.605 2.916V9.612H142.553V2.916H144.605Z" fill="url(#paint5_linear)"/>
<path d="M148.144 4.032C148.384 3.664 148.684 3.376 149.044 3.168C149.404 2.952 149.804 2.844 150.244 2.844V5.016H149.68C149.168 5.016 148.784 5.128 148.528 5.352C148.272 5.568 148.144 5.952 148.144 6.504V9.612H146.092V2.916H148.144V4.032Z" fill="url(#paint6_linear)"/>
<path d="M153.948 9.708C153.364 9.708 152.844 9.608 152.388 9.408C151.932 9.208 151.572 8.936 151.308 8.592C151.044 8.24 150.896 7.848 150.864 7.416H152.892C152.916 7.648 153.024 7.836 153.216 7.98C153.408 8.124 153.644 8.196 153.924 8.196C154.18 8.196 154.376 8.148 154.512 8.052C154.656 7.948 154.728 7.816 154.728 7.656C154.728 7.464 154.628 7.324 154.428 7.236C154.228 7.14 153.904 7.036 153.456 6.924C152.976 6.812 152.576 6.696 152.256 6.576C151.936 6.448 151.66 6.252 151.428 5.988C151.196 5.716 151.08 5.352 151.08 4.896C151.08 4.512 151.184 4.164 151.392 3.852C151.608 3.532 151.92 3.28 152.328 3.096C152.744 2.912 153.236 2.82 153.804 2.82C154.644 2.82 155.304 3.028 155.784 3.444C156.272 3.86 156.552 4.412 156.624 5.1H154.728C154.696 4.868 154.592 4.684 154.416 4.548C154.248 4.412 154.024 4.344 153.744 4.344C153.504 4.344 153.32 4.392 153.192 4.488C153.064 4.576 153 4.7 153 4.86C153 5.052 153.1 5.196 153.3 5.292C153.508 5.388 153.828 5.484 154.26 5.58C154.756 5.708 155.16 5.836 155.472 5.964C155.784 6.084 156.056 6.284 156.288 6.564C156.528 6.836 156.652 7.204 156.66 7.668C156.66 8.06 156.548 8.412 156.324 8.724C156.108 9.028 155.792 9.268 155.376 9.444C154.968 9.62 154.492 9.708 153.948 9.708Z" fill="url(#paint7_linear)"/>
<defs>
<linearGradient id="paint0_linear" x1="87.6787" y1="20.999" x2="99.7578" y2="55.1105" gradientUnits="userSpaceOnUse">
<stop stop-color="#485BFF"/>
<stop offset="1" stop-color="#FF59F8"/>
</linearGradient>
<linearGradient id="paint1_linear" x1="87.6787" y1="20.999" x2="99.7578" y2="55.1105" gradientUnits="userSpaceOnUse">
<stop stop-color="#485BFF"/>
<stop offset="1" stop-color="#FF59F8"/>
</linearGradient>
<linearGradient id="paint2_linear" x1="87.6787" y1="20.999" x2="99.7578" y2="55.1105" gradientUnits="userSpaceOnUse">
<stop stop-color="#485BFF"/>
<stop offset="1" stop-color="#FF59F8"/>
</linearGradient>
<linearGradient id="paint3_linear" x1="81.0842" y1="5" x2="141.295" y2="79.547" gradientUnits="userSpaceOnUse">
<stop stop-color="#485BFF"/>
<stop offset="1" stop-color="#FF59F8"/>
</linearGradient>
<linearGradient id="paint4_linear" x1="133.664" y1="6.612" x2="156.664" y2="6.612" gradientUnits="userSpaceOnUse">
<stop stop-color="#485BFF"/>
<stop offset="1" stop-color="#E559F9"/>
</linearGradient>
<linearGradient id="paint5_linear" x1="133.664" y1="6.612" x2="156.664" y2="6.612" gradientUnits="userSpaceOnUse">
<stop stop-color="#485BFF"/>
<stop offset="1" stop-color="#E559F9"/>
</linearGradient>
<linearGradient id="paint6_linear" x1="133.664" y1="6.612" x2="156.664" y2="6.612" gradientUnits="userSpaceOnUse">
<stop stop-color="#485BFF"/>
<stop offset="1" stop-color="#E559F9"/>
</linearGradient>
<linearGradient id="paint7_linear" x1="133.664" y1="6.612" x2="156.664" y2="6.612" gradientUnits="userSpaceOnUse">
<stop stop-color="#485BFF"/>
<stop offset="1" stop-color="#E559F9"/>
</linearGradient>
</defs>
</svg>
