<svg width="25" height="24" viewBox="0 0 25 24" fill="none" xmlns="http://www.w3.org/2000/svg">
<path d="M24.45 11.11L2.45001 0.110006C2.27758 0.0237731 2.0839 -0.0107787 1.89228 0.0105114C1.70067 0.0318016 1.5193 0.108026 1.37001 0.230006C1.22743 0.349499 1.12101 0.506393 1.06272 0.68305C1.00442 0.859707 0.996554 1.04912 1.04001 1.23001L3.69001 11H15V13H3.69001L1.00001 22.74C0.959233 22.8911 0.954473 23.0496 0.986111 23.2028C1.01775 23.356 1.0849 23.4997 1.18217 23.6223C1.27943 23.7448 1.4041 23.8428 1.54614 23.9084C1.68818 23.9741 1.84364 24.0054 2.00001 24C2.15655 23.9991 2.31068 23.9614 2.45001 23.89L24.45 12.89C24.6138 12.8061 24.7513 12.6786 24.8473 12.5216C24.9433 12.3645 24.994 12.1841 24.994 12C24.994 11.816 24.9433 11.6355 24.8473 11.4785C24.7513 11.3214 24.6138 11.1939 24.45 11.11V11.11Z" fill="white"/>
</svg>
